# xmcd
#
# Track frame offsets:
#	150
#	15652
#	31552
#	49067
#	61957
#	75260
#	91325
#	104300
#	120150
#	132865
#
# Disc length: 2041 seconds
#
# Revision: 1
# Processed by: cddbd v1.4PL0 Copyright (c) Steve Scherf et al.
# Submitted via: audiograbber 1.81.03
#
DISCID=6607f70a
DTITLE=Clayton`Bellamy Band - Clayton`Bellamy Band
DYEAR=2001
DGENRE=
TTITLE0=Long Way To Houston
TTITLE1=Take Me Away
TTITLE2=Racing On The Wind
TTITLE3=Over You Shoulder
TTITLE4=Devil's Charm
TTITLE5=Keep on Hangin On
TTITLE6=The Ballad of Claude Perdeux
TTITLE7=Love You Too Much
TTITLE8=Deep Down
TTITLE9=Remind Me
EXTD=
EXTT0=
EXTT1=
EXTT2=
EXTT3=
EXTT4=
EXTT5=
EXTT6=
EXTT7=
EXTT8=
EXTT9=
PLAYORDER=
